<svg width="102" height="40" viewBox="0 0 102 40" fill="none" xmlns="http://www.w3.org/2000/svg">
<path fill-rule="evenodd" clip-rule="evenodd" d="M25 4C23.6193 4 22.5 5.11929 22.5 6.5C22.5 7.88071 23.6193 9 25 9C26.3807 9 27.5 7.88071 27.5 6.5C27.5 5.11929 26.3807 4 25 4ZM23 27.5V11H27V27.5H23ZM17.9447 25.8377C16.5932 27.2979 14.5942 28 11.9477 28C9.35739 28 7.38654 27.3541 6.06325 26.0623C3.75805 24 4.00793 20.0247 4.00793 20.0247H8.25934C8.25934 20.0247 8.25582 22.25 9.21662 23.2541C9.75508 23.8169 10.737 24.1527 11.9758 24.1527C13.3273 24.1527 14.3127 23.7877 14.8758 23.0295C15.4389 22.2993 15.7486 21.0356 15.7486 19.2945V7.5H20V19.4068C20 22.2712 19.2961 24.4055 17.9447 25.8377ZM40.75 17.5L47.5 27.5H42.75L37.75 19.75L34 23.25V27.5H30V4L34 6V19L42 11.5H47.25L40.75 17.5Z" fill="#1D1B2E"/>
<path fill-rule="evenodd" clip-rule="evenodd" d="M61.1171 20.1943C61.3666 19.521 61.4026 18.8276 61.1669 18.1331L64.2595 15.0631C65.0231 16.7037 65.2045 18.342 64.7648 19.9778C64.3446 21.6329 63.3225 23.2278 61.7182 24.8204C59.6693 26.8542 57.6553 27.925 55.6372 27.994C53.5998 28.0821 51.6749 27.2074 49.8042 25.3504L49.6288 25.1763C47.8361 23.3967 46.9351 21.3895 47.0036 19.155C47.0528 16.9397 48.0535 14.8631 50.0058 12.9251C51.9194 11.0256 53.9532 10.0512 56.1072 10.0021C58.2612 9.95295 60.2053 10.7699 61.9591 12.5108L63.1477 13.6908L53.3478 23.4189C54.3405 24.1357 55.3703 24.4288 56.4176 24.2404C57.4455 24.0711 58.491 23.4588 59.5734 22.3843C60.3466 21.6168 60.8677 20.9061 61.1171 20.1943ZM55.2284 13.4278C54.2392 13.5587 53.2517 14.1134 52.2852 15.0728C51.2801 16.0705 50.7021 17.1085 50.5123 18.1481C50.3419 19.207 50.5791 20.2482 51.243 21.2527L58.2015 14.3452C57.2088 13.6284 56.1983 13.3161 55.2284 13.4278Z" fill="#31C1FF"/>
<path fill-rule="evenodd" clip-rule="evenodd" d="M77.644 23.744C76.048 23.744 75.04 23.52 74.648 23.044C74.228 22.596 74.032 21.476 74.032 19.712L74 15H79.5V11.25H74V7H70.5C70.5 7 70.75 10.25 70 11C69.25 11.75 66.5 11.5 66.5 11.5V15H70.25V20.5C70.25 23.244 70.5 25 71.5 26C72.5406 27.0406 74.036 27.5 76.5 27.5H79.25V23.75L77.644 23.744ZM96.4342 19.2484C97.4688 19.9753 98 21.0658 98 22.5477C98 24.2253 97.273 25.5674 95.875 26.5461C94.449 27.5247 92.4918 28 90.0033 28C87.2632 28 85.1661 27.5247 83.6842 26.574C82.1743 25.6234 81.2796 24.2072 81 22.25H85.5576C85.7253 23.1447 86.2007 23.722 86.9276 24.1135C87.6546 24.5049 88.7171 24.7007 90.1711 24.7007C91.4572 24.7007 92.3799 24.5609 92.9951 24.2253C93.6102 23.9178 93.9178 23.4145 93.9178 22.7155C93.9178 22.1842 93.6102 21.7928 93.023 21.5411C92.4079 21.3174 91.0378 21.0938 88.8569 20.926C86.2007 20.7303 84.3273 20.2549 83.2648 19.528C82.2023 18.801 81.6711 17.7105 81.6711 16.2566C81.6711 14.6349 82.3141 13.3487 83.6562 12.398C84.9984 11.4753 86.8438 11 89.2204 11C91.6809 11 93.6382 11.4474 95.0362 12.3421C96.4342 13.2368 97.3289 14.551 97.7204 16.3405H93.4145C93.2467 15.5855 92.8273 15.0263 92.1562 14.6628C91.4852 14.3273 90.4786 14.1316 89.1924 14.1316C88.0181 14.1316 87.1234 14.2993 86.5362 14.6069C85.949 14.9145 85.6694 15.3618 85.6694 15.977C85.6694 16.5362 85.949 16.9556 86.5641 17.1793C87.1793 17.4309 88.5214 17.6266 90.6464 17.7944C93.4424 18.0461 95.3717 18.5214 96.4342 19.2484Z" fill="#1D1B2E"/>
<path d="M4 34L98 32V36H4V34Z" fill="#31C1FF"/>
</svg>
